<svg class="animated" id="freepik_stories-craft-beer-manufacturing" xmlns="http://www.w3.org/2000/svg" xmlnsXlink="http://www.w3.org/1999/xlink" viewBox="0 0 500 500" version="1.1" xmlnsSvgjs="http://svgjs.com/svgjs"><style>svg#freepik_stories-craft-beer-manufacturing:not(.animated) .animable {opacity: 0;}svg#freepik_stories-craft-beer-manufacturing.animated #elvvhnmv5v2xb {animation: 1.0s 1 forwards cubic-bezier(.36,-0.01,.5,1.38) slideUp;animation-delay: 0s;}svg#freepik_stories-craft-beer-manufacturing.animated #el9nappdescic {animation: 1.0s 1 forwards cubic-bezier(.36,-0.01,.5,1.38) slideUp;animation-delay: 0.02631578947368421s;opacity: 0}svg#freepik_stories-craft-beer-manufacturing.animated #el1ejwmr476pa {animation: 1.0s 1 forwards cubic-bezier(.36,-0.01,.5,1.38) slideUp;animation-delay: 0.05263157894736842s;opacity: 0}svg#freepik_stories-craft-beer-manufacturing.animated #ela1kcinbm4dk {animation: 1.0s 1 forwards cubic-bezier(.36,-0.01,.5,1.38) slideUp;animation-delay: 0.07894736842105263s;opacity: 0}svg#freepik_stories-craft-beer-manufacturing.animated #eloswqznx1kg {animation: 1.0s 1 forwards cubic-bezier(.36,-0.01,.5,1.38) slideUp;animation-delay: 0.10526315789473684s;opacity: 0}svg#freepik_stories-craft-beer-manufacturing.animated #elakodkdcv2w9 {animation: 1.0s 1 forwards cubic-bezier(.36,-0.01,.5,1.38) slideUp;animation-delay: 0.13157894736842105s;opacity: 0}svg#freepik_stories-craft-beer-manufacturing.animated #el84yl26c2q52 {animation: 1.0s 1 forwards cubic-bezier(.36,-0.01,.5,1.38) slideUp;animation-delay: 0.15789473684210525s;opacity: 0}svg#freepik_stories-craft-beer-manufacturing.animated #el4dvb8y2en0r {animation: 1.0s 1 forwards cubic-bezier(.36,-0.01,.5,1.38) slideUp;animation-delay: 0.18421052631578946s;opacity: 0}svg#freepik_stories-craft-beer-manufacturing.animated #elr8xv8zicvjb {animation: 1.0s 1 forwards cubic-bezier(.36,-0.01,.5,1.38) slideUp;animation-delay: 0.21052631578947367s;opacity: 0}svg#freepik_stories-craft-beer-manufacturing.animated #elbdb0el0gtr {animation: 1.0s 1 forwards cubic-bezier(.36,-0.01,.5,1.38) slideUp;animation-delay: 0.23684210526315788s;opacity: 0}svg#freepik_stories-craft-beer-manufacturing.animated #elrvicxdj0989 {animation: 1.0s 1 forwards cubic-bezier(.36,-0.01,.5,1.38) slideUp;animation-delay: 0.2631578947368421s;opacity: 0}svg#freepik_stories-craft-beer-manufacturing.animated #el24jt8mt4d7u {animation: 1.0s 1 forwards cubic-bezier(.36,-0.01,.5,1.38) slideUp;animation-delay: 0.2894736842105263s;opacity: 0}svg#freepik_stories-craft-beer-manufacturing.animated #el4uzvbckmduh {animation: 1.0s 1 forwards cubic-bezier(.36,-0.01,.5,1.38) slideUp;animation-delay: 0.3157894736842105s;opacity: 0}svg#freepik_stories-craft-beer-manufacturing.animated #els3riphenx0r {animation: 1.0s 1 forwards cubic-bezier(.36,-0.01,.5,1.38) slideUp;animation-delay: 0.3421052631578947s;opacity: 0}svg#freepik_stories-craft-beer-manufacturing.animated #el9prkzl1rqzd {animation: 1.0s 1 forwards cubic-bezier(.36,-0.01,.5,1.38) slideUp;animation-delay: 0.3684210526315789s;opacity: 0}svg#freepik_stories-craft-beer-manufacturing.animated #el8ykpgr4abm {animation: 1.0s 1 forwards cubic-bezier(.36,-0.01,.5,1.38) slideUp;animation-delay: 0.39473684210526316s;opacity: 0}svg#freepik_stories-craft-beer-manufacturing.animated #elii9eacfdz5 {animation: 1.0s 1 forwards cubic-bezier(.36,-0.01,.5,1.38) slideUp;animation-delay: 0.42105263157894735s;opacity: 0}svg#freepik_stories-craft-beer-manufacturing.animated #ellvyh7ljmjk {animation: 1.0s 1 forwards cubic-bezier(.36,-0.01,.5,1.38) slideUp;animation-delay: 0.4473684210526315s;opacity: 0}svg#freepik_stories-craft-beer-manufacturing.animated #elmhjg17zu4bs {animation: 1.0s 1 forwards cubic-bezier(.36,-0.01,.5,1.38) slideUp;animation-delay: 0.47368421052631576s;opacity: 0}svg#freepik_stories-craft-beer-manufacturing.animated #ellb9zeuot9pk {animation: 1.0s 1 forwards cubic-bezier(.36,-0.01,.5,1.38) slideUp;animation-delay: 0.5s;opacity: 0}svg#freepik_stories-craft-beer-manufacturing.animated #elzkzy98vwrhp {animation: 1.0s 1 forwards cubic-bezier(.36,-0.01,.5,1.38) slideUp;animation-delay: 0.5263157894736842s;opacity: 0}svg#freepik_stories-craft-beer-manufacturing.animated #elhdt3rwvrv3o {animation: 1.0s 1 forwards cubic-bezier(.36,-0.01,.5,1.38) slideUp;animation-delay: 0.5526315789473684s;opacity: 0}svg#freepik_stories-craft-beer-manufacturing.animated #elme7uw4gowxh {animation: 1.0s 1 forwards cubic-bezier(.36,-0.01,.5,1.38) slideUp;animation-delay: 0.5789473684210527s;opacity: 0}svg#freepik_stories-craft-beer-manufacturing.animated #el329wllhmgf7 {animation: 1.0s 1 forwards cubic-bezier(.36,-0.01,.5,1.38) slideUp;animation-delay: 0.6052631578947368s;opacity: 0}svg#freepik_stories-craft-beer-manufacturing.animated #elr6k6uew9mr {animation: 1.0s 1 forwards cubic-bezier(.36,-0.01,.5,1.38) slideUp;animation-delay: 0.631578947368421s;opacity: 0}svg#freepik_stories-craft-beer-manufacturing.animated #elvdc3ub5i2hf {animation: 1.0s 1 forwards cubic-bezier(.36,-0.01,.5,1.38) slideUp;animation-delay: 0.6578947368421052s;opacity: 0}svg#freepik_stories-craft-beer-manufacturing.animated #el1znra8sezm8 {animation: 1.0s 1 forwards cubic-bezier(.36,-0.01,.5,1.38) slideUp;animation-delay: 0.6842105263157894s;opacity: 0}svg#freepik_stories-craft-beer-manufacturing.animated #elwx72ojed829 {animation: 1.0s 1 forwards cubic-bezier(.36,-0.01,.5,1.38) slideUp;animation-delay: 0.7105263157894737s;opacity: 0}svg#freepik_stories-craft-beer-manufacturing.animated #elm1vkbrfkpdb {animation: 1.0s 1 forwards cubic-bezier(.36,-0.01,.5,1.38) slideUp;animation-delay: 0.7368421052631579s;opacity: 0}svg#freepik_stories-craft-beer-manufacturing.animated #els3la0cmq3bg {animation: 1.0s 1 forwards cubic-bezier(.36,-0.01,.5,1.38) slideUp;animation-delay: 0.763157894736842s;opacity: 0}svg#freepik_stories-craft-beer-manufacturing.animated #el3p356sd11fa {animation: 1.0s 1 forwards cubic-bezier(.36,-0.01,.5,1.38) slideUp;animation-delay: 0.7894736842105263s;opacity: 0}svg#freepik_stories-craft-beer-manufacturing.animated #els7bkm80b9ys {animation: 1.0s 1 forwards cubic-bezier(.36,-0.01,.5,1.38) slideUp;animation-delay: 0.8157894736842105s;opacity: 0}svg#freepik_stories-craft-beer-manufacturing.animated #elzqgdyqlwom {animation: 1.0s 1 forwards cubic-bezier(.36,-0.01,.5,1.38) slideUp;animation-delay: 0.8421052631578947s;opacity: 0}svg#freepik_stories-craft-beer-manufacturing.animated #el6is00135w1c {animation: 1.0s 1 forwards cubic-bezier(.36,-0.01,.5,1.38) slideUp;animation-delay: 0.8684210526315789s;opacity: 0}svg#freepik_stories-craft-beer-manufacturing.animated #elrh4qnn7r359 {animation: 1.0s 1 forwards cubic-bezier(.36,-0.01,.5,1.38) slideUp;animation-delay: 0.894736842105263s;opacity: 0}svg#freepik_stories-craft-beer-manufacturing.animated #elpwltvtfa3b {animation: 1.0s 1 forwards cubic-bezier(.36,-0.01,.5,1.38) slideUp;animation-delay: 0.9210526315789473s;opacity: 0}svg#freepik_stories-craft-beer-manufacturing.animated #el9sbvuylmz7m {animation: 1.0s 1 forwards cubic-bezier(.36,-0.01,.5,1.38) slideUp;animation-delay: 0.9473684210526315s;opacity: 0}svg#freepik_stories-craft-beer-manufacturing.animated #elxgmj8ye2wna {animation: 1.0s 1 forwards cubic-bezier(.36,-0.01,.5,1.38) slideUp;animation-delay: 0.9736842105263157s;opacity: 0}svg#freepik_stories-craft-beer-manufacturing.animated #freepik--Bottles--inject-3 {animation: 1.0s 1 forwards cubic-bezier(.36,-0.01,.5,1.38) slideUp;animation-delay: 0s;}            @keyframes slideUp {                0% {                    opacity: 0;                    transform: translateY(30px);                }                100% {                    opacity: 1;                    transform: inherit;                }            }        .animator-hidden { display: none; }</style><g id="freepik--background-simple--inject-3" class="animable animator-hidden" style="transform-origin: 245.921px 257.838px;"><path d="M324.29,74.27S251.9,53,180.42,96.07s-107.93,123.51-139.2,188S27.28,411.79,81.45,438.33,172.88,420,249.16,414.15s96.72,3.66,160.28-41,75.65-143.36,26.2-213.51S324.29,74.27,324.29,74.27Z" style="fill: rgb(227, 106, 39); transform-origin: 245.921px 257.838px;" id="elod9ls4th2d" class="animable"></path><g id="elsrluzjgmf3i"><path d="M324.29,74.27S251.9,53,180.42,96.07s-107.93,123.51-139.2,188S27.28,411.79,81.45,438.33,172.88,420,249.16,414.15s96.72,3.66,160.28-41,75.65-143.36,26.2-213.51S324.29,74.27,324.29,74.27Z" style="fill: rgb(255, 255, 255); opacity: 0.8; transform-origin: 245.921px 257.838px;" class="animable"></path></g></g><g id="freepik--Equipment--inject-3" class="animable" style="transform-origin: 263.555px 243.965px;"><rect x="159.95" y="348.43" width="171.61" height="12.1" style="fill: rgb(227, 106, 39); transform-origin: 245.755px 354.48px;" id="elex4kcc4ggw" class="animable"></rect><path d="M196.33,279.16h-18v-4.72h18a5.59,5.59,0,0,0,5.59-5.59V148.11a6.18,6.18,0,0,0-6.18-6.18h-69.2a5.31,5.31,0,0,0-5.3,5.3v9.42h-4.72v-9.42a10,10,0,0,1,10-10h69.2a10.91,10.91,0,0,1,10.9,10.9V268.85A10.32,10.32,0,0,1,196.33,279.16Z" style="fill: rgb(227, 106, 39); transform-origin: 161.57px 208.195px;" id="elmfbeitxthzr" class="animable"></path><rect x="55.15" y="363.97" width="7.8" height="83.55" style="fill: rgb(227, 106, 39); transform-origin: 59.05px 405.745px;" id="elc6fv0bvym8g" class="animable"></rect><rect x="166.12" y="363.97" width="7.8" height="83.55" style="fill: rgb(227, 106, 39); transform-origin: 170.02px 405.745px;" id="el87xl5wi7v66" class="animable"></rect><rect x="104.74" y="150.17" width="22.97" height="8.25" style="fill: rgb(227, 106, 39); transform-origin: 116.225px 154.295px;" id="elom9subt2jsc" class="animable"></rect><rect x="168.94" y="266.79" width="22.97" height="18.85" style="fill: rgb(227, 106, 39); transform-origin: 180.425px 276.215px;" id="elng13zfr96fq" class="animable"></rect><rect x="66.42" y="155.9" width="98.83" height="183.79" rx="6.74" style="fill: rgb(227, 106, 39); transform-origin: 115.835px 247.795px;" id="el8vh08338lku" class="animable"></rect><rect x="75.33" y="155.9" width="81.01" height="183.79" rx="6.74" style="fill: rgb(163, 163, 163); transform-origin: 115.835px 247.795px;" id="elchlcxn0nvmr" class="animable"></rect><rect x="85.82" y="155.9" width="60.04" height="183.79" rx="6.74" style="fill: rgb(227, 106, 39); transform-origin: 115.84px 247.795px;" id="els8d6l6701a" class="animable"></rect><rect x="49.95" y="175.84" width="131.78" height="186.39" style="fill: rgb(227, 106, 39); transform-origin: 115.84px 269.035px;" id="elyvf8khi0dqj" class="animable"></rect><g style="clip-path: url(&quot;#freepik--clip-path--inject-3&quot;); transform-origin: 115.84px 269.035px;" id="el07klbemy9iid" class="animable"><g id="el2s59kd91yxy"><rect x="49.95" y="175.84" width="131.78" height="186.39" style="fill: rgb(255, 255, 255); opacity: 0.6; transform-origin: 115.84px 269.035px;" class="animable"></rect></g><rect x="56.22" y="175.84" width="15.71" height="186.39" style="fill: rgb(255, 255, 255); transform-origin: 64.075px 269.035px;" id="elkhh0vy7uthl" class="animable"></rect></g><g id="eljp3sqbayxsm"><rect x="71.93" y="175.84" width="7.54" height="186.39" style="fill: rgb(163, 163, 163); transform-origin: 75.7px 269.035px; transform: rotate(180deg);" class="animable"></rect></g><rect x="156.59" y="175.84" width="17.34" height="186.39" style="fill: rgb(163, 163, 163); transform-origin: 165.26px 269.035px;" id="elpxstaihzypc" class="animable"></rect><polygon points="97.05 447.35 49.95 362.24 181.73 362.24 134.6 447.41 97.05 447.35" style="fill: rgb(227, 106, 39); transform-origin: 115.84px 404.825px;" id="elelfswx4qobs" class="animable"></polygon><g style="clip-path: url(&quot;#freepik--clip-path-2--inject-3&quot;); transform-origin: 115.84px 404.88px;" id="elmp3av5dqwmg" class="animable"><g id="ellofn1zwnzhm"><polygon points="135.62 447.52 181.73 362.24 49.95 362.24 96.06 447.52 135.62 447.52" style="fill: rgb(255, 255, 255); opacity: 0.5; transform-origin: 115.84px 404.88px;" class="animable"></polygon></g></g><polygon points="127.63 447.52 173.74 362.24 156.08 362.24 109.97 447.52 127.63 447.52" style="fill: rgb(163, 163, 163); transform-origin: 141.855px 404.88px;" id="el7uxhrzcrin8" class="animable"></polygon><rect x="232.95" y="377.03" width="80.31" height="13.2" style="fill: rgb(227, 106, 39); transform-origin: 273.105px 383.63px;" id="eliqqzbyfxb5k" class="animable"></rect><rect x="232.95" y="418.83" width="80.31" height="13.2" style="fill: rgb(227, 106, 39); transform-origin: 273.105px 425.43px;" id="elyoig1ewmjxq" class="animable"></rect><path d="M466.86,279.16h-18v-4.72h18a5.6,5.6,0,0,0,5.6-5.59V148.11a6.19,6.19,0,0,0-6.18-6.18H397.07a5.31,5.31,0,0,0-5.3,5.3v9.42h-4.72v-9.42a10,10,0,0,1,10-10h69.21a10.91,10.91,0,0,1,10.9,10.9V268.85A10.32,10.32,0,0,1,466.86,279.16Z" style="fill: rgb(227, 106, 39); transform-origin: 432.105px 208.195px;" id="elotfhpe4umjr" class="animable"></path><rect x="231.47" y="348.71" width="7.8" height="98.81" style="fill: rgb(227, 106, 39); transform-origin: 235.37px 398.115px;" id="eljmzddkcwo5" class="animable"></rect><rect x="312.18" y="348.71" width="7.8" height="98.81" style="fill: rgb(227, 106, 39); transform-origin: 316.08px 398.115px;" id="elo5ffkxhs2c" class="animable"></rect><rect x="436.66" y="359.43" width="7.8" height="88.09" style="fill: rgb(227, 106, 39); transform-origin: 440.56px 403.475px;" id="elojkqgjh7se" class="animable"></rect><rect x="375.28" y="150.17" width="22.97" height="8.25" style="fill: rgb(227, 106, 39); transform-origin: 386.765px 154.295px;" id="el81ly6e6hiz9" class="animable"></rect><rect x="439.48" y="266.79" width="22.97" height="18.85" style="fill: rgb(227, 106, 39); transform-origin: 450.965px 276.215px;" id="elmf88r8armhr" class="animable"></rect><rect x="336.96" y="155.9" width="98.83" height="183.79" rx="6.74" style="fill: rgb(227, 106, 39); transform-origin: 386.375px 247.795px;" id="elitmqc9un2t" class="animable"></rect><rect x="346.59" y="155.9" width="79.56" height="183.79" rx="6.74" style="fill: rgb(163, 163, 163); transform-origin: 386.37px 247.795px;" id="elahm3mqn8cl" class="animable"></rect><rect x="357.08" y="155.9" width="58.59" height="183.79" rx="6.74" style="fill: rgb(227, 106, 39); transform-origin: 386.375px 247.795px;" id="el343k87kcnxy" class="animable"></rect><rect x="320.49" y="175.84" width="131.78" height="186.39" style="fill: rgb(227, 106, 39); transform-origin: 386.38px 269.035px;" id="el695blcnqdk8" class="animable"></rect><g style="clip-path: url(&quot;#freepik--clip-path-3--inject-3&quot;); transform-origin: 386.38px 269.035px;" id="elhv055g5zv9q" class="animable"><g id="elwqced6j68k8"><rect x="320.49" y="175.84" width="131.78" height="186.39" style="fill: rgb(255, 255, 255); opacity: 0.6; transform-origin: 386.38px 269.035px;" class="animable"></rect></g><rect x="332.72" y="175.84" width="13.35" height="186.39" style="fill: rgb(255, 255, 255); transform-origin: 339.395px 269.035px;" id="el8ahmg1yhl9t" class="animable"></rect></g><rect x="346.07" y="175.84" width="10.49" height="186.39" style="fill: rgb(163, 163, 163); transform-origin: 351.315px 269.035px;" id="elfzxbz41k2l9" class="animable"></rect><rect x="427.12" y="175.84" width="17.34" height="186.39" style="fill: rgb(163, 163, 163); transform-origin: 435.79px 269.035px;" id="elipre0l6upy" class="animable"></rect><rect x="75.46" y="76.22" width="12.67" height="22.59" style="fill: rgb(163, 163, 163); transform-origin: 81.795px 87.515px;" id="el8kq7tzws3ph" class="animable"></rect><path d="M111,125.8A28.92,28.92,0,0,0,82.07,97.15h-.55A28.92,28.92,0,0,0,52.61,125.8Z" style="fill: rgb(227, 106, 39); transform-origin: 81.805px 111.475px;" id="el5unkmsbgbyr" class="animable"></path><g id="elob4pcjlaah"><path d="M111,125.8A28.92,28.92,0,0,0,82.07,97.15h-.55A28.92,28.92,0,0,0,52.61,125.8Z" style="fill: rgb(255, 255, 255); opacity: 0.6; transform-origin: 81.805px 111.475px;" class="animable"></path></g><path d="M85.65,97.22c-.63,0-1.28-.07-1.92-.07h-.55A28.92,28.92,0,0,0,54.26,125.8h4.41A28.91,28.91,0,0,1,85.65,97.22Z" style="fill: rgb(255, 255, 255); transform-origin: 69.955px 111.475px;" id="elw46ip5elq4" class="animable"></path><path d="M86.3,97.22c-.64,0,1.2-.07.55-.07H86.3A28.91,28.91,0,0,0,57.39,125.8h4.4C61.94,110.6,71.32,98.21,86.3,97.22Z" style="fill: rgb(163, 163, 163); transform-origin: 72.1906px 111.475px;" id="elq7884t89l7i" class="animable"></path><line x1="81.8" y1="77.21" x2="81.8" y2="40.41" style="fill: none; stroke: rgb(163, 163, 163); stroke-miterlimit: 10; transform-origin: 81.8px 58.81px;" id="el7byiiofclaa" class="animable"></line><rect x="330.39" y="76.22" width="12.67" height="22.59" style="fill: rgb(163, 163, 163); transform-origin: 336.725px 87.515px;" id="el68v3tel7z5a" class="animable"></rect><path d="M365.91,125.8A28.91,28.91,0,0,0,337,97.15h-.55a28.92,28.92,0,0,0-28.92,28.65Z" style="fill: rgb(227, 106, 39); transform-origin: 336.72px 111.475px;" id="elik1mtm2dn1f" class="animable"></path><g id="elfzgc4pgws8e"><path d="M365.91,125.8A28.91,28.91,0,0,0,337,97.15h-.55a28.92,28.92,0,0,0-28.92,28.65Z" style="fill: rgb(255, 255, 255); opacity: 0.6; transform-origin: 336.72px 111.475px;" class="animable"></path></g><path d="M340.58,97.22c-.64,0-1.28-.07-1.93-.07h-.55a28.91,28.91,0,0,0-28.91,28.65h4.4A28.93,28.93,0,0,1,340.58,97.22Z" style="fill: rgb(255, 255, 255); transform-origin: 324.885px 111.475px;" id="eln5317l53rv" class="animable"></path><path d="M341.23,97.22c-.64,0,1.2-.07.55-.07h-.55a28.92,28.92,0,0,0-28.92,28.65h4.41C316.86,110.6,326.24,98.21,341.23,97.22Z" style="fill: rgb(163, 163, 163); transform-origin: 327.116px 111.475px;" id="elwskgptpxa9j" class="animable"></path><line x1="336.72" y1="77.21" x2="336.72" y2="40.41" style="fill: none; stroke: rgb(163, 163, 163); stroke-miterlimit: 10; transform-origin: 336.72px 58.81px;" id="elyav6l5m4hll" class="animable"></line></g><g id="freepik--Character--inject-3" class="animable animator-active" style="transform-origin: 316.21px 284.45px;"><path d="M276,295.29s-31.74-50.83-36.22-57.14S223.85,217,218,215.74s-15.88-3.66-23.15-2.53-13,3.76-12.51,6.75,4.3,16.4,10.18,17.67,32.29,5.05,32.29,5.05,15.67,36.34,20,51.35c4.72,16.33,14.79,24.82,23.12,30.53s23-4,23-4Z" style="fill: rgb(255, 255, 255); stroke: rgb(38, 50, 56); stroke-miterlimit: 10; transform-origin: 236.62px 269.637px;" id="elw1kwez53u" class="animable"></path><path d="M239.82,238.15c-4.48-6.3-16-21.14-21.86-22.41s-15.88-3.66-23.15-2.53-13,3.76-12.51,6.75,4.3,16.4,10.18,17.67,32.29,5.05,32.29,5.05l2.91,10.08c3.62,0,9.83-1.27,15.87-8.86C241.9,241.28,240.59,239.23,239.82,238.15Z" style="fill: rgb(133, 133, 133); stroke: rgb(38, 50, 56); stroke-miterlimit: 10; transform-origin: 212.91px 232.837px;" id="eljygxj56w4y9" class="animable"></path><polygon points="206.41 249.93 183.25 249.77 180.7 199.6 209.65 199.8 206.41 249.93" style="fill: rgb(227, 106, 39); stroke: rgb(38, 50, 56); stroke-miterlimit: 10; transform-origin: 195.175px 224.765px;" id="ellf8z36i9dj" class="animable"></polygon><polygon points="207.2 237.67 208.67 214.9 181.48 214.9 182.63 237.67 207.2 237.67" style="fill: rgb(38, 50, 56); transform-origin: 195.075px 226.285px;" id="elo9m5slzppy" class="animable"></polygon><g style="clip-path: url(&quot;#freepik--clip-path-4--inject-3&quot;); transform-origin: 195px 226.42px;" id="elg0nk5zdp1r4" class="animable"><circle cx="195" cy="226.42" r="11.52" style="fill: rgb(255, 255, 255); stroke: rgb(38, 50, 56); stroke-linecap: round; stroke-linejoin: round; transform-origin: 195px 226.42px;" id="elh3ab3z2djmr" class="animable"></circle><path d="M200.67,226.42a5.67,5.67,0,1,1-5.67-5.66A5.66,5.66,0,0,1,200.67,226.42Z" style="fill: rgb(227, 106, 39); transform-origin: 195px 226.43px;" id="ely0tgjoir3z8" class="animable"></path></g><polygon points="181.12 207.81 209.12 208.01 209.65 199.8 180.7 199.6 181.12 207.81" style="fill: rgb(255, 255, 255); stroke: rgb(38, 50, 56); stroke-miterlimit: 10; transform-origin: 195.175px 203.805px;" id="elzkg5k4x196m" class="animable"></polygon><path d="M232.08,230.6s-9.45-13-14.12-14.86-14.27-1.73-16.77-.9-11.24.87-9.72,5,8.58,1.73,8.58,1.73l5.56-.86s4.65,10.21,11.59,12.64" style="fill: rgb(133, 133, 133); stroke: rgb(38, 50, 56); stroke-miterlimit: 10; transform-origin: 211.687px 223.805px;" id="el5qu5db5wslc" class="animable"></path><path d="M307.32,317.46s-3.46,80-7.35,99c-1.11,5.44-2.58,17-4.11,30.74h121l-12.67-89.1L427.51,250s-35-15.56-46.69-19-23.78-2.6-25.51-1.73c0,0-31.13,14.7-35.89,16.86s-43.66,43.23-43.66,43.23l9.51,39.35Z" style="fill: rgb(227, 106, 39); stroke: rgb(38, 50, 56); stroke-miterlimit: 10; transform-origin: 351.635px 337.85px;" id="ela9expfy2xej" class="animable"></path><path d="M412.69,261.22S401.8,275.79,401,285.82" style="fill: none; stroke: rgb(38, 50, 56); stroke-miterlimit: 10; transform-origin: 406.845px 273.52px;" id="el9qtc846st1u" class="animable"></path><path d="M400.6,270.28s-4,11.55-2.15,18.56" style="fill: none; stroke: rgb(38, 50, 56); stroke-miterlimit: 10; transform-origin: 399.281px 279.56px;" id="elci6gb17l9q5" class="animable"></path><line x1="310.41" y1="286.25" x2="310.41" y2="270.71" style="fill: none; stroke: rgb(38, 50, 56); stroke-miterlimit: 10; transform-origin: 310.41px 278.48px;" id="elassszf0yw8e" class="animable"></line><path d="M348,250.86s-5.61,22-6.91,30.64" style="fill: none; stroke: rgb(38, 50, 56); stroke-miterlimit: 10; transform-origin: 344.545px 266.18px;" id="elda7d9hemwrv" class="animable"></path><line x1="407.16" y1="316.98" x2="392.59" y2="294.7" style="fill: none; stroke: rgb(38, 50, 56); stroke-miterlimit: 10; transform-origin: 399.875px 305.84px;" id="elw9vcqdt7ccc" class="animable"></line><line x1="409.73" y1="318.27" x2="391.73" y2="307.56" style="fill: none; stroke: rgb(38, 50, 56); stroke-miterlimit: 10; transform-origin: 400.73px 312.915px;" id="el531v3hjaswy" class="animable"></line><path d="M416.83,447.2l-12.67-89.1,2.22-10.29c-4.42-2.24-16.84-9.89-27.29-29.06-13-23.78,5.94-86.14,5.94-86.14l-7.24-2.05-16.43,54-37.61-.87,16.86-47.12-6.05,3s-22.05,38.92-24.21,45-3,32.86-3,32.86-3.46,80-7.35,99c-1.11,5.44-2.58,17-4.11,30.74Z" style="fill: rgb(38, 50, 56); stroke: rgb(38, 50, 56); stroke-miterlimit: 10; transform-origin: 356.36px 338.88px;" id="elhpdof8upczv" class="animable"></path><ellipse cx="339.33" cy="333" rx="27.67" ry="42.33" style="fill: rgb(255, 255, 255); stroke: rgb(38, 50, 56); stroke-linecap: round; stroke-linejoin: round; transform-origin: 339.33px 333px;" id="elwelvevixqbk" class="animable"></ellipse><ellipse cx="339.33" cy="333" rx="13.6" ry="20.81" style="fill: rgb(227, 106, 39); transform-origin: 339.33px 333px;" id="elrx3y2iqots" class="animable"></ellipse><polygon points="394.65 447.2 394.65 409.98 347.09 409.98 346.75 447.2 394.65 447.2" style="fill: rgb(156, 156, 156); stroke: rgb(38, 50, 56); stroke-miterlimit: 10; transform-origin: 370.7px 428.59px;" id="el4ddwwmicwbo" class="animable"></polygon><path d="M348.07,249.47l-15.57,9.08s4.87-19.78,10.7-25.62,23.67-9.4,31.46-9.4S385,232.61,385,232.61l-15.89,28.86Z" style="fill: rgb(227, 106, 39); stroke: rgb(38, 50, 56); stroke-miterlimit: 10; transform-origin: 358.75px 242.5px;" id="elabhqj8yqrth" class="animable"></path><path d="M345.15,215.75l2.92,33.72,29.83-22.7V212.51S352.93,219,345.15,215.75Z" style="fill: rgb(255, 255, 255); stroke: rgb(38, 50, 56); stroke-miterlimit: 10; transform-origin: 361.525px 230.99px;" id="elavt34yuijoq" class="animable"></path><path d="M335.1,171.05s-2-6.48-5.19.33,4.24,14.26,5.21,14.58S335.1,171.05,335.1,171.05Z" style="fill: rgb(255, 255, 255); stroke: rgb(38, 50, 56); stroke-miterlimit: 10; transform-origin: 332.333px 177.115px;" id="elgki10ec88mm" class="animable"></path><path d="M387.31,177.44s5.18-7.46,8.42-5.2.68,14.59-3.21,18.49-5.83.33-5.83.33" style="fill: rgb(255, 255, 255); stroke: rgb(38, 50, 56); stroke-miterlimit: 10; transform-origin: 391.948px 182.183px;" id="eldo6mb4mfydn" class="animable"></path><path d="M353.5,124.32s-15.9-2.89-18.8,5.22-.93,26-.92,29.84-.26,38.58-.24,47.34,10.72,13.92,24,14.87,20.74-2.63,24.95-9.77,5.14-25,5.14-25,3.52-29.84,5.77-41.19-6.2-20.1-14.31-23S353.5,124.32,353.5,124.32Z" style="fill: rgb(255, 255, 255); stroke: rgb(38, 50, 56); stroke-miterlimit: 10; transform-origin: 363.443px 171.705px;" id="el1l18ld9jcm7" class="animable"></path><path d="M393.42,145.66c2.25-11.36-6.2-20.1-14.31-23s-25.61,1.66-25.61,1.66-15.9-2.89-18.8,5.22-.93,26-.92,29.84c0,1,0,4,0,8.06a12.16,12.16,0,0,0,1.66-5.15c.32-3.89.63-12.64,2.57-17.51s8.09-7.8,8.09-7.8,8.12,5.83,12,5.49,9.07-2.93,9.07-2.93h-3.89a11.14,11.14,0,0,1-4.86-1.62s12.31-4.56,17.5-1.65,9.43,11.34,7.49,15.55.33,5.84,2,8.43,1.32,13.62.68,17.19-2.89,19.46-4.51,19.46-3.25-4.86-7.14-5.5-27.24.05-31.13.7-1.61,6.17-4.86,4.23c-2-1.18-3.7-5.93-4.76-9.49-.05,8.37-.09,16.29-.08,19.87,0,8.75,10.72,13.92,24,14.87s20.74-2.63,24.95-9.77,5.14-25,5.14-25S391.17,157,393.42,145.66Z" style="fill: rgb(38, 50, 56); stroke: rgb(38, 50, 56); stroke-miterlimit: 10; transform-origin: 363.453px 171.713px;" id="elhb4muwqiyu" class="animable"></path><path d="M355.52,167.45s-2.89,20.11-2.56,23,6.17,4.86,8.11,1.93.63-10.7.63-10.7" style="fill: rgb(255, 255, 255); stroke: rgb(38, 50, 56); stroke-miterlimit: 10; transform-origin: 357.533px 180.638px;" id="elvraahjaur9s" class="animable"></path><path d="M347.74,168.27c0,1.52-.65,2.76-1.46,2.76s-1.46-1.23-1.46-2.75.65-2.76,1.45-2.76S347.73,166.75,347.74,168.27Z" style="fill: rgb(38, 50, 56); transform-origin: 346.28px 168.275px;" id="elw42urtmok9f" class="animable"></path><path d="M369.46,169c0,1.53-.64,2.76-1.45,2.76s-1.46-1.23-1.46-2.75.64-2.76,1.45-2.76S369.46,167.52,369.46,169Z" style="fill: rgb(38, 50, 56); transform-origin: 368.005px 169.005px;" id="el7xutaingmen" class="animable"></path><path d="M341.24,161.63s3.92-5.33,13.29-1.64" style="fill: none; stroke: rgb(38, 50, 56); stroke-linecap: round; stroke-linejoin: round; stroke-width: 2px; transform-origin: 347.885px 160.159px;" id="elxac6a6ofa5" class="animable"></path><path d="M363.94,160.62s9.39-4.55,13.94,2.25" style="fill: none; stroke: rgb(38, 50, 56); stroke-linecap: round; stroke-linejoin: round; stroke-width: 2px; transform-origin: 370.91px 161px;" id="el4bbxt6tm1k3" class="animable"></path><path d="M373.08,196.6s-24.32,1-25.62,1-3.89,1.3-2.26,4.22,6.49,4.2,8.11,3.87,3.12-4.83,5.51-2.93c3.25,2.59,4.87,4.21,11.35,2.26C375,203.57,377.62,196.27,373.08,196.6Z" style="fill: rgb(255, 255, 255); stroke: rgb(38, 50, 56); stroke-miterlimit: 10; transform-origin: 360.054px 201.235px;" id="elc0spk9vq18" class="animable"></path><line x1="340.93" y1="172.34" x2="350.34" y2="172.32" style="fill: none; stroke: rgb(38, 50, 56); stroke-miterlimit: 10; transform-origin: 345.635px 172.33px;" id="eln1gg0sakd2n" class="animable"></line><line x1="363.96" y1="173.27" x2="375.31" y2="174.55" style="fill: none; stroke: rgb(38, 50, 56); stroke-miterlimit: 10; transform-origin: 369.635px 173.91px;" id="elzkfvny0wkqr" class="animable"></line><path d="M448.7,336.91s-20.76,6.49-27.24,6.49c0,0-7.35,24.64-7.35,34.58s-6.49,46.27-8.22,51-11.24,7.78-12.1,13c-.22,1.32-.67,3.17-1.22,5.23H418.9c1-6.87,1.69-13.88,1.69-13.88s16.86-36.74,23.78-56.63S448.7,336.91,448.7,336.91Z" style="fill: rgb(255, 255, 255); stroke: rgb(38, 50, 56); stroke-miterlimit: 10; transform-origin: 420.872px 392.06px;" id="elpinwf4iyaxd" class="animable"></path><path d="M418.9,447.2c1-6.87,1.69-13.88,1.69-13.88s1.25-2.72,3.21-7.08a40.71,40.71,0,0,1-15.92-5.7,82.31,82.31,0,0,1-2,8.46c-1.73,4.76-11.24,7.78-12.1,13-.22,1.32-.67,3.17-1.22,5.23Z" style="fill: rgb(133, 133, 133); stroke: rgb(38, 50, 56); stroke-miterlimit: 10; transform-origin: 408.18px 433.885px;" id="elkcm2nfut4d" class="animable"></path><path d="M400.27,295.84l12.54,48.85s9.08,3,18.16,1.3,20.75-9.51,20.75-9.51-18.59-80.85-22.05-84.31-17.29-8.64-17.29-8.64" style="fill: rgb(227, 106, 39); stroke: rgb(38, 50, 56); stroke-miterlimit: 10; transform-origin: 425.995px 295.021px;" id="elwdefuphgjs8" class="animable"></path></g><g id="freepik--Bottles--inject-3" class="animable" style="transform-origin: 246.815px 369.19px;"><line x1="10.78" y1="446.92" x2="482.85" y2="446.92" style="fill: none; stroke: rgb(38, 50, 56); stroke-miterlimit: 10; stroke-width: 2px; transform-origin: 246.815px 446.92px;" id="elvvhnmv5v2xb" class="animable"></line><path d="M176.11,380.4l4.44-32h8.3l5,32.82a9.94,9.94,0,0,0,1.7,4.24l.4.57a9.92,9.92,0,0,1,1.82,5.72v51.1a4,4,0,0,1-4,4H175.6a4,4,0,0,1-4-4v-51.1a9.89,9.89,0,0,1,2.32-6.37h0A10,10,0,0,0,176.11,380.4Z" style="fill: rgb(227, 106, 39); stroke: rgb(38, 50, 56); stroke-linecap: round; stroke-linejoin: round; transform-origin: 184.685px 397.625px;" id="el9nappdescic" class="animable"></path><path d="M188.39,349.59H181A1.62,1.62,0,0,1,179.4,348h0a1.61,1.61,0,0,1,1.61-1.61h7.38A1.61,1.61,0,0,1,190,348h0A1.62,1.62,0,0,1,188.39,349.59Z" style="fill: rgb(227, 106, 39); stroke: rgb(38, 50, 56); stroke-linecap: round; stroke-linejoin: round; transform-origin: 184.7px 347.99px;" id="el1ejwmr476pa" class="animable"></path><rect x="171.57" y="395.66" width="26.15" height="33.48" style="fill: rgb(38, 50, 56); transform-origin: 184.645px 412.4px;" id="ela1kcinbm4dk" class="animable"></rect><g style="clip-path: url(&quot;#freepik--clip-path-5--inject-3&quot;); transform-origin: 182.81px 411.72px;" id="eloswqznx1kg" class="animable"><g id="eljaqf7ldm0no"><circle cx="182.81" cy="411.72" r="14.05" style="fill: rgb(255, 255, 255); stroke: rgb(38, 50, 56); stroke-linecap: round; stroke-linejoin: round; transform-origin: 182.81px 411.72px; transform: rotate(-45deg);" class="animable"></circle></g><path d="M189.72,411.72a6.91,6.91,0,1,1-6.91-6.9A6.91,6.91,0,0,1,189.72,411.72Z" style="fill: rgb(227, 106, 39); transform-origin: 182.81px 411.73px;" id="elcqx93lh3mmf" class="animable"></path></g><rect x="171.57" y="395.66" width="26.15" height="33.48" style="fill: none; stroke: rgb(38, 50, 56); stroke-linecap: round; stroke-linejoin: round; transform-origin: 184.645px 412.4px;" id="elakodkdcv2w9" class="animable"></rect><polygon points="177.66 369.25 191.99 369.25 191.06 363.1 178.51 363.1 177.66 369.25" style="fill: rgb(255, 255, 255); stroke: rgb(38, 50, 56); stroke-linecap: round; stroke-linejoin: round; transform-origin: 184.825px 366.175px;" id="el84yl26c2q52" class="animable"></polygon><path d="M209,380.4l4.45-32h8.29l5,32.82a9.94,9.94,0,0,0,1.7,4.24l.41.57a9.91,9.91,0,0,1,1.81,5.72v51.1a4,4,0,0,1-4,4H208.49a4,4,0,0,1-4-4v-51.1a9.89,9.89,0,0,1,2.32-6.37h0A9.87,9.87,0,0,0,209,380.4Z" style="fill: rgb(227, 106, 39); stroke: rgb(38, 50, 56); stroke-linecap: round; stroke-linejoin: round; transform-origin: 217.575px 397.625px;" id="el4dvb8y2en0r" class="animable"></path><path d="M221.27,349.59H213.9a1.62,1.62,0,0,1-1.61-1.62h0a1.61,1.61,0,0,1,1.61-1.61h7.37a1.61,1.61,0,0,1,1.61,1.61h0A1.62,1.62,0,0,1,221.27,349.59Z" style="fill: rgb(227, 106, 39); stroke: rgb(38, 50, 56); stroke-linecap: round; stroke-linejoin: round; transform-origin: 217.585px 347.975px;" id="elr8xv8zicvjb" class="animable"></path><rect x="204.45" y="395.66" width="26.15" height="33.48" style="fill: rgb(38, 50, 56); transform-origin: 217.525px 412.4px;" id="elbdb0el0gtr" class="animable"></rect><g style="clip-path: url(&quot;#freepik--clip-path-6--inject-3&quot;); transform-origin: 215.7px 411.72px;" id="elrvicxdj0989" class="animable"><g id="el1yec82qvvcw"><circle cx="215.7" cy="411.72" r="14.05" style="fill: rgb(255, 255, 255); stroke: rgb(38, 50, 56); stroke-linecap: round; stroke-linejoin: round; transform-origin: 215.7px 411.72px; transform: rotate(-43.74deg);" class="animable"></circle></g><path d="M222.6,411.72a6.91,6.91,0,1,1-6.9-6.9A6.9,6.9,0,0,1,222.6,411.72Z" style="fill: rgb(227, 106, 39); transform-origin: 215.69px 411.73px;" id="elq92jq44wvyj" class="animable"></path></g><rect x="204.45" y="395.66" width="26.15" height="33.48" style="fill: none; stroke: rgb(38, 50, 56); stroke-linecap: round; stroke-linejoin: round; transform-origin: 217.525px 412.4px;" id="el24jt8mt4d7u" class="animable"></rect><polygon points="210.54 369.25 224.87 369.25 223.94 363.1 211.4 363.1 210.54 369.25" style="fill: rgb(255, 255, 255); stroke: rgb(38, 50, 56); stroke-linecap: round; stroke-linejoin: round; transform-origin: 217.705px 366.175px;" id="el4uzvbckmduh" class="animable"></polygon><path d="M159.39,446.92H130V371.29l6.68-72.5a8.07,8.07,0,0,1,8-7.33h0a8.07,8.07,0,0,1,8,7.31l6.66,70.84Z" style="fill: rgb(255, 255, 255); stroke: rgb(38, 50, 56); stroke-miterlimit: 10; transform-origin: 144.695px 369.19px;" id="els3riphenx0r" class="animable"></path><path d="M155.19,446.92H125.78V371.29l6.68-72.5a8.06,8.06,0,0,1,8-7.33h0a8.07,8.07,0,0,1,8,7.31l6.66,70.84Z" style="fill: rgb(38, 50, 56); stroke: rgb(38, 50, 56); stroke-miterlimit: 10; transform-origin: 140.485px 369.19px;" id="el9prkzl1rqzd" class="animable"></path><path d="M119.15,380.4l4.44-32h8.3l4.94,32.82a10,10,0,0,0,1.71,4.24l.4.57a9.92,9.92,0,0,1,1.82,5.72v51.1a4,4,0,0,1-4,4H118.64a4,4,0,0,1-4-4v-51.1a9.89,9.89,0,0,1,2.32-6.37h0A10,10,0,0,0,119.15,380.4Z" style="fill: rgb(227, 106, 39); stroke: rgb(38, 50, 56); stroke-linecap: round; stroke-linejoin: round; transform-origin: 127.7px 397.625px;" id="el8ykpgr4abm" class="animable"></path><path d="M131.43,349.59h-7.38a1.62,1.62,0,0,1-1.61-1.62h0a1.61,1.61,0,0,1,1.61-1.61h7.38A1.61,1.61,0,0,1,133,348h0A1.62,1.62,0,0,1,131.43,349.59Z" style="fill: rgb(227, 106, 39); stroke: rgb(38, 50, 56); stroke-linecap: round; stroke-linejoin: round; transform-origin: 127.72px 347.975px;" id="elii9eacfdz5" class="animable"></path><rect x="114.61" y="395.66" width="26.15" height="33.48" style="fill: rgb(38, 50, 56); transform-origin: 127.685px 412.4px;" id="ellvyh7ljmjk" class="animable"></rect><g style="clip-path: url(&quot;#freepik--clip-path-7--inject-3&quot;); transform-origin: 125.85px 411.72px;" id="elmhjg17zu4bs" class="animable"><g id="eldh0x8wgeap"><circle cx="125.85" cy="411.72" r="14.05" style="fill: rgb(255, 255, 255); stroke: rgb(38, 50, 56); stroke-linecap: round; stroke-linejoin: round; transform-origin: 125.85px 411.72px; transform: rotate(-21.81deg);" class="animable"></circle></g><path d="M132.76,411.72a6.91,6.91,0,1,1-6.91-6.9A6.91,6.91,0,0,1,132.76,411.72Z" style="fill: rgb(227, 106, 39); transform-origin: 125.85px 411.73px;" id="elizd9jylg1hd" class="animable"></path></g><rect x="114.61" y="395.66" width="26.15" height="33.48" style="fill: none; stroke: rgb(38, 50, 56); stroke-linecap: round; stroke-linejoin: round; transform-origin: 127.685px 412.4px;" id="ellb9zeuot9pk" class="animable"></rect><polygon points="120.7 369.25 135.03 369.25 134.1 363.1 121.55 363.1 120.7 369.25" style="fill: rgb(255, 255, 255); stroke: rgb(38, 50, 56); stroke-linecap: round; stroke-linejoin: round; transform-origin: 127.865px 366.175px;" id="elzkzy98vwrhp" class="animable"></polygon><path d="M98.14,380.4l4.44-32h8.3l5,32.82a9.94,9.94,0,0,0,1.7,4.24l.4.57a9.92,9.92,0,0,1,1.82,5.72v51.1a4,4,0,0,1-4,4H97.63a4,4,0,0,1-4-4v-51.1a9.89,9.89,0,0,1,2.32-6.37h0A10,10,0,0,0,98.14,380.4Z" style="fill: rgb(227, 106, 39); stroke: rgb(38, 50, 56); stroke-linecap: round; stroke-linejoin: round; transform-origin: 106.715px 397.625px;" id="elhdt3rwvrv3o" class="animable"></path><path d="M110.42,349.59h-7.37a1.62,1.62,0,0,1-1.62-1.62h0a1.61,1.61,0,0,1,1.62-1.61h7.37A1.61,1.61,0,0,1,112,348h0A1.62,1.62,0,0,1,110.42,349.59Z" style="fill: rgb(227, 106, 39); stroke: rgb(38, 50, 56); stroke-linecap: round; stroke-linejoin: round; transform-origin: 106.715px 347.975px;" id="elme7uw4gowxh" class="animable"></path><rect x="93.6" y="395.66" width="26.15" height="33.48" style="fill: rgb(38, 50, 56); transform-origin: 106.675px 412.4px;" id="el329wllhmgf7" class="animable"></rect><g style="clip-path: url(&quot;#freepik--clip-path-8--inject-3&quot;); transform-origin: 104.84px 411.72px;" id="elr6k6uew9mr" class="animable"><g id="elwxqzaja423i"><circle cx="104.84" cy="411.72" r="14.05" style="fill: rgb(255, 255, 255); stroke: rgb(38, 50, 56); stroke-linecap: round; stroke-linejoin: round; transform-origin: 104.84px 411.72px; transform: rotate(-47.37deg);" class="animable"></circle></g><path d="M111.75,411.72a6.91,6.91,0,1,1-6.91-6.9A6.91,6.91,0,0,1,111.75,411.72Z" style="fill: rgb(227, 106, 39); transform-origin: 104.84px 411.73px;" id="elht8jzd3v6st" class="animable"></path></g><rect x="93.6" y="395.66" width="26.15" height="33.48" style="fill: none; stroke: rgb(38, 50, 56); stroke-linecap: round; stroke-linejoin: round; transform-origin: 106.675px 412.4px;" id="elvdc3ub5i2hf" class="animable"></rect><polygon points="99.69 369.25 114.02 369.25 113.09 363.1 100.54 363.1 99.69 369.25" style="fill: rgb(255, 255, 255); stroke: rgb(38, 50, 56); stroke-linecap: round; stroke-linejoin: round; transform-origin: 106.855px 366.175px;" id="el1znra8sezm8" class="animable"></polygon><path d="M72.38,380.4l4.44-32h8.3l4.94,32.82a10,10,0,0,0,1.71,4.24l.4.57A9.92,9.92,0,0,1,94,391.78v51.1a4,4,0,0,1-4,4H71.87a4,4,0,0,1-4-4v-51.1a9.93,9.93,0,0,1,2.31-6.37h0A10,10,0,0,0,72.38,380.4Z" style="fill: rgb(227, 106, 39); stroke: rgb(38, 50, 56); stroke-linecap: round; stroke-linejoin: round; transform-origin: 80.935px 397.64px;" id="elwx72ojed829" class="animable"></path><path d="M84.66,349.59H77.28A1.62,1.62,0,0,1,75.67,348h0a1.61,1.61,0,0,1,1.61-1.61h7.38A1.61,1.61,0,0,1,86.27,348h0A1.62,1.62,0,0,1,84.66,349.59Z" style="fill: rgb(227, 106, 39); stroke: rgb(38, 50, 56); stroke-linecap: round; stroke-linejoin: round; transform-origin: 80.97px 347.99px;" id="elm1vkbrfkpdb" class="animable"></path><rect x="67.84" y="395.66" width="26.15" height="33.48" style="fill: rgb(38, 50, 56); transform-origin: 80.915px 412.4px;" id="els3la0cmq3bg" class="animable"></rect><g style="clip-path: url(&quot;#freepik--clip-path-9--inject-3&quot;); transform-origin: 79.08px 411.72px;" id="el3p356sd11fa" class="animable"><g id="el415q4tqumj7"><circle cx="79.08" cy="411.72" r="14.05" style="fill: rgb(255, 255, 255); stroke: rgb(38, 50, 56); stroke-linecap: round; stroke-linejoin: round; transform-origin: 79.08px 411.72px; transform: rotate(-22.5deg);" class="animable"></circle></g><path d="M86,411.72a6.91,6.91,0,1,1-6.91-6.9A6.91,6.91,0,0,1,86,411.72Z" style="fill: rgb(227, 106, 39); transform-origin: 79.09px 411.73px;" id="elmx816jgy6g" class="animable"></path></g><rect x="67.84" y="395.66" width="26.15" height="33.48" style="fill: none; stroke: rgb(38, 50, 56); stroke-linecap: round; stroke-linejoin: round; transform-origin: 80.915px 412.4px;" id="els7bkm80b9ys" class="animable"></rect><polygon points="73.93 369.25 88.25 369.25 87.33 363.1 74.78 363.1 73.93 369.25" style="fill: rgb(255, 255, 255); stroke: rgb(38, 50, 56); stroke-linecap: round; stroke-linejoin: round; transform-origin: 81.09px 366.175px;" id="elzqgdyqlwom" class="animable"></polygon><rect x="66.12" y="417.51" width="84.03" height="29.41" style="fill: rgb(255, 255, 255); stroke: rgb(38, 50, 56); stroke-miterlimit: 10; transform-origin: 108.135px 432.215px;" id="el6is00135w1c" class="animable"></rect><rect x="66.12" y="380.53" width="84.03" height="29.41" style="fill: rgb(255, 255, 255); stroke: rgb(38, 50, 56); stroke-miterlimit: 10; transform-origin: 108.135px 395.235px;" id="elrh4qnn7r359" class="animable"></rect><rect x="66.12" y="299.02" width="78.15" height="6.72" style="fill: rgb(255, 255, 255); stroke: rgb(38, 50, 56); stroke-miterlimit: 10; transform-origin: 105.195px 302.38px;" id="elpwltvtfa3b" class="animable"></rect><path d="M78.72,446.92H49.31V371.29L56,298.79a8.06,8.06,0,0,1,8-7.33h0a8.07,8.07,0,0,1,8,7.31l6.66,70.84Z" style="fill: rgb(255, 255, 255); stroke: rgb(38, 50, 56); stroke-miterlimit: 10; transform-origin: 64.015px 369.19px;" id="el9sbvuylmz7m" class="animable"></path><path d="M74.52,446.92H45.11V371.29l6.68-72.5a8.06,8.06,0,0,1,8-7.33h0a8.07,8.07,0,0,1,8,7.31l6.66,70.84Z" style="fill: rgb(38, 50, 56); stroke: rgb(38, 50, 56); stroke-miterlimit: 10; transform-origin: 59.815px 369.19px;" id="elxgmj8ye2wna" class="animable"></path></g><defs>     <filter id="active" height="200%">         <feMorphology in="SourceAlpha" result="DILATED" operator="dilate" radius="2"></feMorphology>                <feFlood flood-color="#32DFEC" flood-opacity="1" result="PINK"></feFlood>        <feComposite in="PINK" in2="DILATED" operator="in" result="OUTLINE"></feComposite>        <feMerge>            <feMergeNode in="OUTLINE"></feMergeNode>            <feMergeNode in="SourceGraphic"></feMergeNode>        </feMerge>    </filter>    <filter id="hover" height="200%">        <feMorphology in="SourceAlpha" result="DILATED" operator="dilate" radius="2"></feMorphology>                <feFlood flood-color="#ff0000" flood-opacity="0.5" result="PINK"></feFlood>        <feComposite in="PINK" in2="DILATED" operator="in" result="OUTLINE"></feComposite>        <feMerge>            <feMergeNode in="OUTLINE"></feMergeNode>            <feMergeNode in="SourceGraphic"></feMergeNode>        </feMerge>            <feColorMatrix type="matrix" values="0   0   0   0   0                0   1   0   0   0                0   0   0   0   0                0   0   0   1   0 "></feColorMatrix>    </filter></defs><defs><clipPath id="freepik--clip-path--inject-3"><rect x="49.95" y="175.84" width="131.78" height="186.39" style="fill:#E36A27"></rect></clipPath><clipPath id="freepik--clip-path-2--inject-3"><polygon points="97.05 447.35 49.95 362.24 181.73 362.24 134.6 447.41 97.05 447.35" style="fill:#E36A27"></polygon></clipPath><clipPath id="freepik--clip-path-3--inject-3"><rect x="320.49" y="175.84" width="131.78" height="186.39" style="fill:#E36A27"></rect></clipPath><clipPath id="freepik--clip-path-4--inject-3"><polygon points="207.2 237.67 208.67 214.9 181.48 214.9 182.63 237.67 207.2 237.67" style="fill:#263238"></polygon></clipPath><clipPath id="freepik--clip-path-5--inject-3"><rect x="171.57" y="395.66" width="26.15" height="33.48" style="fill:#263238;stroke:#263238;stroke-linecap:round;stroke-linejoin:round"></rect></clipPath><clipPath id="freepik--clip-path-6--inject-3"><rect x="204.45" y="395.66" width="26.15" height="33.48" style="fill:#263238;stroke:#263238;stroke-linecap:round;stroke-linejoin:round"></rect></clipPath><clipPath id="freepik--clip-path-7--inject-3"><rect x="114.61" y="395.66" width="26.15" height="33.48" style="fill:#263238;stroke:#263238;stroke-linecap:round;stroke-linejoin:round"></rect></clipPath><clipPath id="freepik--clip-path-8--inject-3"><rect x="93.6" y="395.66" width="26.15" height="33.48" style="fill:#263238;stroke:#263238;stroke-linecap:round;stroke-linejoin:round"></rect></clipPath><clipPath id="freepik--clip-path-9--inject-3"><rect x="67.84" y="395.66" width="26.15" height="33.48" style="fill:#263238;stroke:#263238;stroke-linecap:round;stroke-linejoin:round"></rect></clipPath></defs></svg>
